<?xml version="1.0" standalone="no"?>
<!DOCTYPE svg PUBLIC "-//W3C//DTD SVG 20010904//EN"
 "http://www.w3.org/TR/2001/REC-SVG-20010904/DTD/svg10.dtd">
<svg version="1.0" xmlns="http://www.w3.org/2000/svg"
 width="256.000000pt" height="256.000000pt" viewBox="0 0 256.000000 256.000000"
 preserveAspectRatio="xMidYMid meet">

<g transform="translate(0.000000,256.000000) scale(0.100000,-0.100000)"
fill="#000000" stroke="none">
<path d="M552 1724 l-22 -15 0 -429 0 -429 22 -15 c20 -14 106 -16 728 -16
622 0 708 2 728 16 l22 15 0 429 0 429 -22 15 c-20 14 -106 16 -728 16 -622 0
-708 -2 -728 -16z m1373 -444 l0 -345 -645 0 -645 0 -3 335 c-1 184 0 341 3
348 3 10 136 12 647 10 l643 -3 0 -345z"/>
<path d="M1260 1443 c0 -10 -14 -26 -30 -35 -69 -39 -57 -106 24 -148 28 -14
51 -30 53 -37 7 -21 -34 -35 -74 -24 -42 12 -42 12 -45 -19 -3 -20 3 -25 35
-33 26 -6 37 -14 37 -28 0 -12 7 -19 20 -19 13 0 20 7 20 20 0 12 12 26 30 35
58 30 67 89 19 129 -17 14 -36 26 -43 26 -23 0 -55 30 -49 46 5 13 16 15 53
11 45 -5 48 -4 52 18 5 25 -7 35 -43 35 -12 0 -19 7 -19 20 0 13 -7 20 -20 20
-12 0 -20 -7 -20 -17z"/>
</g>
</svg>
